<svg width="786" height="474" viewBox="0 0 786 474" fill="none" xmlns="http://www.w3.org/2000/svg">
<path d="M119.792 364.28C118.981 362.787 117.808 361.656 116.272 360.888C114.779 360.077 113.008 359.672 110.96 359.672C107.419 359.672 104.581 360.845 102.448 363.192C100.315 365.496 99.248 368.589 99.248 372.472C99.248 376.611 100.357 379.853 102.576 382.2C104.837 384.504 107.931 385.656 111.856 385.656C114.544 385.656 116.805 384.973 118.64 383.608C120.517 382.243 121.883 380.28 122.736 377.72H108.848V369.656H132.656V379.832C131.845 382.563 130.459 385.101 128.496 387.448C126.576 389.795 124.123 391.693 121.136 393.144C118.149 394.595 114.779 395.32 111.024 395.32C106.587 395.32 102.619 394.36 99.12 392.44C95.664 390.477 92.9547 387.768 90.992 384.312C89.072 380.856 88.112 376.909 88.112 372.472C88.112 368.035 89.072 364.088 90.992 360.632C92.9547 357.133 95.664 354.424 99.12 352.504C102.576 350.541 106.523 349.56 110.96 349.56C116.336 349.56 120.859 350.861 124.528 353.464C128.24 356.067 130.693 359.672 131.888 364.28H119.792ZM149.47 350.072V376.952C149.47 379.64 150.131 381.709 151.454 383.16C152.777 384.611 154.718 385.336 157.278 385.336C159.838 385.336 161.801 384.611 163.166 383.16C164.531 381.709 165.214 379.64 165.214 376.952V350.072H176.158V376.888C176.158 380.899 175.305 384.291 173.598 387.064C171.891 389.837 169.587 391.928 166.686 393.336C163.827 394.744 160.627 395.448 157.086 395.448C153.545 395.448 150.366 394.765 147.55 393.4C144.777 391.992 142.579 389.901 140.958 387.128C139.337 384.312 138.526 380.899 138.526 376.888V350.072H149.47ZM222.371 350.072L206.819 380.152V395H195.875V380.152L180.323 350.072H192.739L201.443 368.888L210.083 350.072H222.371ZM253.981 371.96C256.583 372.515 258.674 373.816 260.253 375.864C261.831 377.869 262.621 380.173 262.621 382.776C262.621 386.531 261.298 389.517 258.653 391.736C256.05 393.912 252.402 395 247.709 395H226.781V350.072H247.005C251.57 350.072 255.133 351.117 257.693 353.208C260.295 355.299 261.597 358.136 261.597 361.72C261.597 364.365 260.893 366.563 259.485 368.312C258.119 370.061 256.285 371.277 253.981 371.96ZM237.725 368.248H244.893C246.685 368.248 248.05 367.864 248.989 367.096C249.97 366.285 250.461 365.112 250.461 363.576C250.461 362.04 249.97 360.867 248.989 360.056C248.05 359.245 246.685 358.84 244.893 358.84H237.725V368.248ZM245.789 386.168C247.623 386.168 249.031 385.763 250.013 384.952C251.037 384.099 251.549 382.883 251.549 381.304C251.549 379.725 251.015 378.488 249.949 377.592C248.925 376.696 247.495 376.248 245.661 376.248H237.725V386.168H245.789ZM291.88 395L282.536 378.04H279.912V395H268.968V350.072H287.336C290.877 350.072 293.885 350.691 296.36 351.928C298.877 353.165 300.755 354.872 301.992 357.048C303.229 359.181 303.848 361.571 303.848 364.216C303.848 367.203 302.995 369.869 301.288 372.216C299.624 374.563 297.149 376.227 293.864 377.208L304.232 395H291.88ZM279.912 370.296H286.696C288.701 370.296 290.195 369.805 291.176 368.824C292.2 367.843 292.712 366.456 292.712 364.664C292.712 362.957 292.2 361.613 291.176 360.632C290.195 359.651 288.701 359.16 286.696 359.16H279.912V370.296ZM338.686 387.064H321.918L319.23 395H307.774L324.03 350.072H336.702L352.958 395H341.374L338.686 387.064ZM335.87 378.616L330.302 362.168L324.798 378.616H335.87ZM398.098 395H387.154L368.85 367.288V395H357.906V350.072H368.85L387.154 377.912V350.072H398.098V395ZM422.863 350.072C427.599 350.072 431.737 351.011 435.279 352.888C438.82 354.765 441.551 357.411 443.471 360.824C445.433 364.195 446.415 368.099 446.415 372.536C446.415 376.931 445.433 380.835 443.471 384.248C441.551 387.661 438.799 390.307 435.215 392.184C431.673 394.061 427.556 395 422.863 395H406.031V350.072H422.863ZM422.159 385.528C426.297 385.528 429.519 384.397 431.823 382.136C434.127 379.875 435.279 376.675 435.279 372.536C435.279 368.397 434.127 365.176 431.823 362.872C429.519 360.568 426.297 359.416 422.159 359.416H416.975V385.528H422.159Z" fill="#2E5FA6"/>
<path d="M473.376 387.896H488.096V395H464.416V350.328H473.376V387.896ZM502.751 350.328V395H493.791V350.328H502.751ZM560.308 350.328V395H551.348V365.944L539.38 395H532.596L520.564 365.944V395H511.604V350.328H521.78L535.988 383.544L550.196 350.328H560.308ZM578.126 350.328V395H569.166V350.328H578.126ZM617.379 350.328V357.56H605.475V395H596.515V357.56H584.611V350.328H617.379ZM632.876 357.56V368.76H647.916V375.864H632.876V387.704H649.836V395H623.916V350.264H649.836V357.56H632.876ZM673.595 350.328C678.288 350.328 682.405 351.245 685.947 353.08C689.531 354.915 692.283 357.539 694.203 360.952C696.165 364.323 697.147 368.248 697.147 372.728C697.147 377.208 696.165 381.133 694.203 384.504C692.283 387.832 689.531 390.413 685.947 392.248C682.405 394.083 678.288 395 673.595 395H657.979V350.328H673.595ZM673.275 387.384C677.968 387.384 681.595 386.104 684.155 383.544C686.715 380.984 687.995 377.379 687.995 372.728C687.995 368.077 686.715 364.451 684.155 361.848C681.595 359.203 677.968 357.88 673.275 357.88H666.939V387.384H673.275Z" fill="#E0853B"/>
<path d="M132.116 118.97V265.724L146.893 252.221V114.893L86 54V314.133L97.2104 302.923V84.0643L132.116 118.97Z" fill="#E0853B"/>
<path d="M164.474 163.557L165.319 234.896L151.225 250.183V157.442L211.863 98.3323V188.78L198.869 201.774V130.944L164.474 163.557Z" fill="#E0853B"/>
<path d="M219.251 191.073L89.0566 321.267V347L219.251 216.806L322 315.5L349.444 321.267L219.251 191.073Z" fill="#2E5FA6"/>
</svg>
